<svg width="472" height="262" viewBox="0 0 472 262" fill="none" xmlns="http://www.w3.org/2000/svg">
<path d="M0.330002 220.95C0.330002 215.74 0.230001 211.73 0.0400009 208.94H8.14C8.24 210.31 8.31999 211.82 8.39999 213.49C8.47999 215.16 8.52 216.5 8.52 217.52H8.71001C9.98001 214.31 11.62 211.91 13.62 210.32C15.62 208.73 17.89 207.94 20.44 207.94C22.19 207.94 23.62 208.1 24.73 208.42L24.06 216.86C22.92 216.51 21.55 216.34 19.96 216.34C16.18 216.34 13.4 217.89 11.62 220.99C9.84 224.09 8.95 228.31 8.95 233.65V260.49H0.32V220.97L0.330002 220.95Z" fill="#0073B8"/>
<path d="M40.06 258.06C36.52 255.82 33.83 252.67 32 248.62C30.17 244.57 29.26 239.86 29.26 234.49C29.26 229.12 30.24 224.06 32.19 220.07C34.14 216.08 36.82 213.06 40.22 211.01C43.62 208.96 47.45 207.93 51.71 207.93C56.89 207.93 61.1 209.15 64.34 211.58C67.58 214.01 69.92 217.1 71.35 220.85C72.78 224.6 73.5 228.59 73.5 232.82C73.5 233.9 73.44 235.27 73.31 236.92H38.32C38.32 239.68 38.85 242.38 39.92 245C40.98 247.62 42.61 249.78 44.81 251.48C47 253.18 49.7 254.03 52.91 254.03C54.91 254.03 56.73 253.75 58.37 253.2C60.01 252.64 61.48 251.92 62.8 251.03C64.12 250.14 65.57 249 67.16 247.6L71.83 253.75C70.21 255.12 68.6 256.32 67.02 257.37C65.43 258.42 63.42 259.36 60.99 260.18C58.56 261.01 55.87 261.42 52.91 261.42C47.89 261.42 43.61 260.3 40.06 258.06ZM64.68 229.72C64.27 224.83 62.98 221.2 60.82 218.83C58.66 216.46 55.62 215.28 51.72 215.28C49.59 215.28 47.55 215.78 45.59 216.78C43.64 217.78 42 219.36 40.68 221.52C39.36 223.68 38.62 226.42 38.46 229.72H64.68Z" fill="#0073B8"/>
<path d="M82.22 254.13L123.12 236.64L82.22 219.19V211.85L129.7 231.78V241.55L82.22 261.43V254.14V254.13Z" fill="#0073B8"/>
<path d="M217.17 255.15C209.98 250.97 204.55 245.17 200.89 237.75C197.23 230.33 195.4 221.79 195.4 212.13C195.4 202.47 197.29 193.73 201.06 186.44C204.84 179.16 210.26 173.54 217.34 169.58C224.42 165.63 232.79 163.65 242.45 163.65C252.11 163.65 260.86 165.67 267.6 169.72C274.34 173.77 279.53 179.34 283.17 186.44L266.65 194.46C264.54 190.46 261.47 187.15 257.45 184.55C253.43 181.94 248.56 180.64 242.85 180.64C237.14 180.64 232.61 181.94 228.46 184.55C224.3 187.16 221.09 190.83 218.82 195.57C216.55 200.31 215.41 205.83 215.41 212.12C215.41 218.41 216.47 224.12 218.58 228.98C220.69 233.83 223.85 237.61 228.05 240.31C232.25 243.01 237.34 244.35 243.32 244.35C254.6 244.35 263.01 238.96 268.54 228.17L284.86 236.6C281.53 243.88 276.47 249.84 269.66 254.46C262.85 259.09 254.07 261.41 243.33 261.41C232.59 261.41 224.36 259.32 217.17 255.14V255.15Z" fill="#13B9E1"/>
<path d="M354.98 237.15H317.36L309.74 260.07H289.85L324.51 165.07H347.97L382.49 260.07H362.6L354.98 237.15ZM350.06 222.25L340.49 193.53C340.36 193.08 339.1 188.97 336.71 181.19L336.24 179.71C335.97 180.7 335.42 182.57 334.59 185.34C333.76 188.1 332.87 190.83 331.93 193.53L322.36 222.25H350.07H350.06Z" fill="#13B9E1"/>
<path d="M393.81 165.07H436.49C444.4 165.07 451 166.35 456.28 168.91C461.56 171.47 465.49 175.07 468.08 179.7C470.66 184.33 471.96 189.77 471.96 196.02C471.96 201.82 470.69 207.14 468.15 212C465.61 216.86 461.74 220.74 456.55 223.67C451.36 226.59 444.94 228.05 437.3 228.05H413.7V260.08H393.81V165.08V165.07ZM434.8 211.32C440.51 211.32 444.79 209.98 447.64 207.31C450.49 204.64 451.92 200.96 451.92 196.29C451.92 191.62 450.44 188 447.47 185.57C444.5 183.14 440.1 181.93 434.26 181.93H413.7V211.32H434.8Z" fill="#13B9E1"/>
<path d="M4.14 140.89C4.14 140.89 -6.77 147.01 7.03 154.88C19.3 161.88 34.04 154.62 34.04 154.62L22.05 138.97L4.14 140.89Z" fill="#0090DA"/>
<path d="M281.34 114.93C281.34 119.9 281.09 124.42 280.65 128.11C280.04 133.12 279.07 136.6 277.85 137.56C277.71 137.67 277.57 137.76 277.44 137.81C243.1 150.16 196.24 138.01 194.13 137.45C194.13 137.45 126.63 113.93 72.54 109.73C72.62 109.7 72.7 109.66 72.78 109.63C72.6 109.63 72.5 109.71 72.34 109.72C72.33 109.72 72.31 109.72 72.3 109.72V109.7L94.47 52.5C94.47 52.5 97.06 44.74 102.87 36.03C107.78 28.64 115.02 20.57 124.96 15.99C132.54 12.53 141.89 10.42 151.21 9.13001C157.25 8.29001 163.27 7.80001 168.78 7.52001H168.81C168.81 7.52001 168.85 7.52001 168.87 7.52001C177.11 7.10001 186.05 6.7 186.05 6.7C186.92 1.02 192.77 0.319995 194.95 0.649995C199.93 1.40999 202.58 4.79001 201.79 9.10001C201.79 9.10001 236.87 25.52 245.46 32.51C249.45 35.75 265.79 51.94 273.13 68.39C274.85 72.23 276.34 76.37 277.47 80.81C280.2 91.71 281.33 104.33 281.34 114.93Z" fill="#0090DA"/>
<path d="M194.12 137.45C192.95 138.67 172.01 160.17 143.61 174.01C137.12 162.13 111.69 120.08 72.46 109.77C72.48 109.77 72.51 109.75 72.53 109.74C126.62 113.94 194.12 137.46 194.12 137.46V137.45Z" fill="#009BE2"/>
<path d="M143.61 174.01C133.22 179.07 121.83 183.11 110.04 184.75C103.45 185.67 96.74 185.83 90.01 185.01C91.57 165.04 92.22 123.33 72.4 109.8C72.42 109.8 72.44 109.78 72.46 109.77C111.69 120.09 137.11 162.13 143.61 174.01Z" fill="#00BEEC"/>
<path d="M90.01 185.01C89.11 184.9 88.2 184.77 87.3 184.63C78.32 183.18 69.35 179.91 60.61 174.27C46.82 165.37 13.79 140 3.83 141.14H3.74L3.87 141.12C2.65 141.26 22.43 132.27 42.46 123.26L42.29 123.2H42.6C46.83 121.29 51.08 119.38 55.15 117.56C61.65 114.64 67.67 111.94 72.41 109.81C92.23 123.34 91.58 165.05 90.02 185.02L90.01 185.01Z" fill="#00C8E8"/>
<path d="M168.58 212.35H121.1V219.06H168.58V212.35Z" fill="#0073B8"/>
<path d="M168.58 233.53H132.95V240.24H168.58V233.53Z" fill="#0073B8"/>
<path d="M168.58 254.71H121.1V261.42H168.58V254.71Z" fill="#0073B8"/>
</svg>
