<?xml version="1.0" encoding="utf-8"?>
<!-- Generator: Adobe Illustrator 28.3.0, SVG Export Plug-In . SVG Version: 6.00 Build 0)  -->
<svg version="1.1" id="Ebene_1" xmlns="http://www.w3.org/2000/svg" xmlns:xlink="http://www.w3.org/1999/xlink" x="0px" y="0px"
	 viewBox="0 0 819.1 231.4" style="enable-background:new 0 0 819.1 231.4;" xml:space="preserve">
<g>
	<polygon points="705.6,31.9 737.6,31.9 737.6,0 705.6,0 705.6,31.9 	"/>
	<path d="M819.2,72.7V44.4H800V0H768v44.4h-15.6v0h-14.9h-27.3h-4.6v104.1h-18.2v0H680c7.4-11.3,11.6-25.2,11.6-40.5
		c0-38.7-27.5-68.7-66.6-68.3c-18.4-0.2-34.3,6-46.1,16.5l0-56.3h-31.6v148.5h-26.2v-45.8c0-17.3-1.4-32.9-13.7-46.1
		c-10.6-12-25-16.6-40.6-16.6c-14.4,0-29.5,5.3-38.9,16.6c-1.2,1-2.4,2.4-3.4,4.1c-1-1.4-1.9-2.9-3.1-4.1
		c-8.4-10.8-21.8-16.6-35.5-16.6c-12.5,0-28.8,4.6-35,16.6V44.4h-29.3v104.1h-23.8V44.4h-29.3v9.2c-11.1-8.9-25.5-14.1-41.9-13.9
		c-9.6-0.1-18.6,1.6-26.6,4.7h-63.1v0h-26.9V53c-11-8.5-25.1-13.4-41-13.2C28.3,39.3,0,70.1,0,110.5c0,37.9,30.8,67,68.3,66.6
		c10.7,0.1,20.5-2,29.1-5.8v0.3c0.3-0.2,0.5-0.4,0.8-0.6c4.1-1.9,7.8-4.1,11.3-6.8c-1.6,9.7-3.7,17.4-11.9,24.9
		c-7.7,7.2-19.2,11-29.8,11c-10.3,0-22.6-5-29.8-12.7H1.9c9.8,26.9,37.9,43.9,66,43.9c19.9,0,39.1-8.6,52.8-22.8
		c14.4-15.1,18.7-30.7,18.7-51.4v-35.1h0V73h27.8c-6.1,10.8-9.5,23.6-9.5,37.6c0,37.9,30.8,67,68.3,66.6
		c16.8,0.2,31.4-5.1,42.7-14.1v14.3h4.8h24.4h23.8h27.6h4.3V114c0-18.7,0.5-42.7,25.9-42.7c8.2,0,16.3,3.8,20.9,10.8
		c5,7.7,5,15.8,5,24.5v70.8h31.9V114c0-9.6-0.5-22.6,5-31.2c4.8-7.7,13.2-11.5,22.1-11.5c7.7,0,15.8,3.6,19.9,9.8
		c4.6,6.7,4.8,17.8,4.8,25.4v70.8h6.2h25.7h26.2h31.5l0-16.6c11.9,10.2,27.5,16.3,44.5,16.3v0.3h85.8v0h27.1h1.4V73.2H768v104.1H800
		V72.7H819.2L819.2,72.7z M107,108.2c0,22.8-15.8,40.1-38.9,39.8c-21.6,0.2-39.4-16.6-39.4-38.4c0-23.3,16.3-41,39.8-40.8
		C91.1,68.6,107,85.9,107,108.2L107,108.2z M264.6,108.2c0,22.8-15.8,40.1-38.9,39.8c-21.6,0.2-39.4-16.6-39.4-38.4
		c0-23.3,16.3-41,39.8-40.8C248.8,68.6,264.6,85.9,264.6,108.2L264.6,108.2z M662.8,108.2c0,22.8-15.8,40.1-38.9,39.8
		c-21.6,0.2-39.4-16.6-39.4-38.4c0-23.3,16.3-41,39.8-40.8C647,68.6,662.8,85.9,662.8,108.2L662.8,108.2z"/>
</g>
</svg>
