<svg version="1.1" xmlns="http://www.w3.org/2000/svg" xmlns:xlink="http://www.w3.org/1999/xlink">
  <symbol fill="none" xmlns="http://www.w3.org/2000/svg" aria-hidden="true" viewBox="0 0 25 25" id="insta">
    <rect x="1.25" y="1.25" width="22.5" height="22.5" rx="5.75" stroke="currentColor" stroke-width="2.5"></rect>
    <circle cx="12.5" cy="12.5" r="5.25" stroke="currentColor" stroke-width="2.5"></circle>
    <circle cx="19.5" cy="6.5" r="1.5" fill="currentColor"></circle>
  </symbol>
  <symbol fill="none" xmlns="http://www.w3.org/2000/svg" aria-hidden="true" viewBox="0 0 18 18" id="linkedin">
    <path fill-rule="evenodd" clip-rule="evenodd" d="M0 3a3 3 0 0 1 3-3h12a3 3 0 0 1 3 3v12a3 3 0 0 1-3 3H3a3 3 0 0 1-3-3V3Zm3-1a1 1 0 0 0-1 1v12a1 1 0 0 0 1 1h12a1 1 0 0 0 1-1V3a1 1 0 0 0-1-1H3Z" fill="currentColor"></path>
    <path fill-rule="evenodd" clip-rule="evenodd" d="M5 7a1 1 0 0 1 1 1v5a1 1 0 1 1-2 0V8a1 1 0 0 1 1-1Zm0-.5a1.5 1.5 0 1 0 0-3 1.5 1.5 0 0 0 0 3ZM8 7a1 1 0 0 1 1 1v5a1 1 0 1 1-2 0V8a1 1 0 0 1 1-1Z" fill="currentColor"></path>
    <path fill-rule="evenodd" clip-rule="evenodd" d="M7 10.778A3.778 3.778 0 0 1 10.778 7 3.222 3.222 0 0 1 14 10.222V13a1 1 0 1 1-2 0v-2.778C12 9.547 11.453 9 10.778 9 9.796 9 9 9.796 9 10.778V13a1 1 0 1 1-2 0v-2.222Z" fill="currentColor"></path>
  </symbol>
  <symbol xmlns="http://www.w3.org/2000/svg" aria-hidden="true" viewBox="0 0 45 36" id="youtube">
    <path fill-rule="evenodd" clip-rule="evenodd" d="M42.75 15.752a2.25 2.25 0 0 1 2.25 2.25 43.7 43.7 0 0 1-1.68 11.936c-.75 2.653-3.238 4.334-5.872 4.784A88.873 88.873 0 0 1 22.5 36a2.25 2.25 0 0 1 0-4.5c4.71 0 9.483-.408 14.189-1.213 1.45-.248 2.152-1.048 2.3-1.574A39.233 39.233 0 0 0 40.5 18.002a2.25 2.25 0 0 1 2.25-2.25Z" fill="currentColor"></path>
    <path fill-rule="evenodd" clip-rule="evenodd" d="M42.75 20.25A2.25 2.25 0 0 0 45 18c0-3.997-.562-7.986-1.68-11.937-.75-2.654-3.237-4.334-5.872-4.785A88.869 88.869 0 0 0 22.5 0a2.25 2.25 0 0 0 0 4.5c4.71 0 9.483.408 14.189 1.213 1.45.249 2.152 1.048 2.3 1.574A39.255 39.255 0 0 1 40.5 18.002a2.249 2.249 0 0 0 2.25 2.248Z" fill="currentColor"></path>
    <path fill-rule="evenodd" clip-rule="evenodd" d="M2.25 20.25A2.25 2.25 0 0 1 0 18c0-3.997.562-7.986 1.68-11.937.75-2.654 3.237-4.334 5.872-4.785A88.868 88.868 0 0 1 22.5 0a2.25 2.25 0 0 1 0 4.5c-4.71 0-9.483.408-14.189 1.213-1.45.249-2.152 1.048-2.3 1.574A39.246 39.246 0 0 0 4.5 18a2.25 2.25 0 0 1-2.25 2.25Z" fill="currentColor"></path>
    <path fill-rule="evenodd" clip-rule="evenodd" d="M2.25 15.75A2.25 2.25 0 0 0 0 18c0 3.996.562 7.986 1.68 11.937.75 2.654 3.237 4.334 5.872 4.785A88.864 88.864 0 0 0 22.5 36a2.25 2.25 0 0 0 0-4.5 84.37 84.37 0 0 1-14.189-1.213c-1.45-.248-2.152-1.048-2.3-1.574A39.242 39.242 0 0 1 4.5 18a2.25 2.25 0 0 0-2.25-2.25Zm14.567-4.164a2.25 2.25 0 0 1 2.19-.098l9 4.5a2.25 2.25 0 0 1 0 4.024l-9 4.5A2.25 2.25 0 0 1 15.75 22.5v-9c0-.78.404-1.504 1.067-1.914Z" fill="currentColor"></path>
  </symbol>
  <symbol fill="none" xmlns="http://www.w3.org/2000/svg" aria-hidden="true" viewBox="0 0 18 18" id="facebook">
    <path fill-rule="evenodd" clip-rule="evenodd" d="M0 3a3 3 0 0 1 3-3h12a3 3 0 0 1 3 3v12a3 3 0 0 1-3 3H3a3 3 0 0 1-3-3V3Zm3-1a1 1 0 0 0-1 1v12a1 1 0 0 0 1 1h12a1 1 0 0 0 1-1V3a1 1 0 0 0-1-1H3Z" fill="currentColor"></path>
    <path fill-rule="evenodd" clip-rule="evenodd" d="M12 6a1 1 0 0 0-1 1v10a1 1 0 1 1-2 0V7a3 3 0 0 1 3-3h1a1 1 0 1 1 0 2h-1Z" fill="currentColor"></path>
    <path fill-rule="evenodd" clip-rule="evenodd" d="M7 10a1 1 0 0 1 1-1h4.5a1 1 0 1 1 0 2H8a1 1 0 0 1-1-1Z" fill="currentColor"></path>
  </symbol>
  <symbol xmlns="http://www.w3.org/2000/svg" aria-hidden="true" viewBox="0 0 46 36" id="mail">
    <path fill-rule="evenodd" clip-rule="evenodd" d="M.5 6.75A6.75 6.75 0 0 1 7.25 0h31.5a6.75 6.75 0 0 1 6.75 6.75v22.5A6.75 6.75 0 0 1 38.75 36H7.25A6.75 6.75 0 0 1 .5 29.25V6.75ZM7.25 4.5A2.25 2.25 0 0 0 5 6.75v22.5a2.25 2.25 0 0 0 2.25 2.25h31.5A2.25 2.25 0 0 0 41 29.25V6.75a2.25 2.25 0 0 0-2.25-2.25H7.25Z" fill="currentColor"></path>
    <path fill-rule="evenodd" clip-rule="evenodd" d="M3.092 5.558a2.25 2.25 0 0 1 3.1-.716l15.616 9.76a2.25 2.25 0 0 0 2.384 0l15.615-9.76a2.25 2.25 0 0 1 2.386 3.816l-15.615 9.76a6.75 6.75 0 0 1-7.155 0L3.807 8.657a2.25 2.25 0 0 1-.716-3.1Z" fill="currentColor"></path>
  </symbol>
  <symbol fill="none" xmlns="http://www.w3.org/2000/svg" viewBox="0 0 30 28" id="website">
    <path d="M24.844.809c1.172 0 2.168.41 2.988 1.23.82.82 1.23 1.797 1.23 2.93V7.78c0 .43-.136.782-.41 1.055a1.478 1.478 0 0 1-.996.351c-.39 0-.722-.117-.996-.351-.273-.274-.41-.625-.41-1.055V4.97c0-.39-.137-.703-.41-.938a1.356 1.356 0 0 0-.996-.41H5.214c-.39 0-.722.137-.995.41-.274.235-.41.547-.41.938v1.406h7.03c.391 0 .723.137.997.41.273.274.41.606.41.996 0 .43-.137.782-.41 1.055a1.478 1.478 0 0 1-.996.351H3.809v12.657c0 .39.136.722.41.996.273.273.605.41.996.41H8.73c.391 0 .723.137.997.41.273.235.41.567.41.996 0 .39-.137.723-.41.996a1.478 1.478 0 0 1-.997.352H5.215c-1.133 0-2.13-.41-2.988-1.23-.82-.82-1.23-1.797-1.23-2.93V4.969c0-1.133.41-2.11 1.23-2.93C3.086 1.22 4.082.81 5.215.81h19.629ZM19.336 7.78c1.367 0 2.637.274 3.809.82a9.267 9.267 0 0 1 3.046 2.11 9.944 9.944 0 0 1 2.11 3.105c.508 1.172.762 2.442.762 3.809a9.75 9.75 0 0 1-.762 3.809 9.944 9.944 0 0 1-2.11 3.105 9.764 9.764 0 0 1-3.164 2.11c-1.172.507-2.441.761-3.808.761a9.75 9.75 0 0 1-3.809-.762 9.942 9.942 0 0 1-3.105-2.109 9.942 9.942 0 0 1-2.11-3.105 9.75 9.75 0 0 1-.761-3.809c0-1.367.254-2.637.761-3.809.508-1.21 1.192-2.246 2.051-3.105a9.943 9.943 0 0 1 3.106-2.11 9.15 9.15 0 0 1 3.808-.82h.176Zm5.508 5.625c-.742-.937-1.602-1.62-2.578-2.05.195.312.351.644.468.996.157.312.313.664.47 1.054h1.64Zm-5.625-1.758a18.292 18.292 0 0 0-.88 1.758h1.817c-.312-.781-.625-1.367-.937-1.758Zm-6.973 5.977v.703l.117.703h2.285a4.276 4.276 0 0 1-.058-.703v-1.406c0-.235.02-.469.058-.703h-2.285l-.117.703v.703Zm1.406 4.219c.743.937 1.602 1.62 2.579 2.05a11.351 11.351 0 0 1-.528-.937 20.31 20.31 0 0 0-.41-1.113h-1.64Zm1.641-8.438c.156-.39.293-.742.41-1.054.156-.352.332-.684.527-.997-.976.43-1.835 1.114-2.578 2.051h1.641Zm3.926 10.196c.195-.274.351-.547.468-.82l.47-.938H18.34l.879 1.758Zm1.758-4.57c.078-.235.117-.47.117-.704v-1.406c0-.235-.04-.469-.117-.703H17.52a2.212 2.212 0 0 0-.118.703v1.406c0 .235.04.469.117.703h3.458Zm1.289 4.863c.976-.43 1.836-1.114 2.578-2.051h-1.64c-.157.39-.313.761-.47 1.113a5.253 5.253 0 0 1-.468.938Zm3.867-4.864c.039-.234.058-.468.058-.703a4.265 4.265 0 0 0 0-1.406c0-.235-.02-.469-.058-.703h-2.285c.039.234.058.468.058.703v1.406c0 .235-.02.469-.058.703h2.285Z" fill="currentColor"></path>
  </symbol>
  <symbol fill="none" xmlns="http://www.w3.org/2000/svg" aria-hidden="true" viewBox="0 0 40 42" id="github">
    <path d="M15.125 34.308c-8.959 2.687-8.959-4.48-12.542-5.375m25.083 10.75v-6.934a6.037 6.037 0 0 0-1.684-4.676c5.626-.627 11.538-2.76 11.538-12.542a9.747 9.747 0 0 0-2.687-6.719 9.084 9.084 0 0 0-.161-6.754s-2.114-.627-7.006 2.651a23.972 23.972 0 0 0-12.541 0c-4.892-3.278-7.006-2.651-7.006-2.651a9.084 9.084 0 0 0-.161 6.754 9.747 9.747 0 0 0-2.687 6.773c0 9.71 5.912 11.843 11.538 12.541a6.039 6.039 0 0 0-1.684 4.623v6.934" stroke="currentColor" stroke-width="4" stroke-linecap="round" stroke-linejoin="round"></path>
  </symbol>
  <symbol fill="none" aria-hidden="true" xmlns="http://www.w3.org/2000/svg"  viewBox="0 0 300 271" id="twitter">
    <path d="M236 0h46L181 115l118 156h-92.6l-72.5-94.8-83 94.8h-46l107-123L-1.1 0h94.9l65.5 86.6zm-16.1 244h25.5L80.4 26H53z" fill="currentColor" />
  </symbol>
  <symbol id="mastodon" viewBox="0 0 512 512" fill="none">
    <path fill="currentColor" stroke="none" stroke-linecap="round" stroke-linejoin="round" stroke-miterlimit="10" stroke-width="50" d="M451.839 183.897c0-91.111-59.709-117.825-59.709-117.825-58.584-26.902-214.185-26.622-272.206 0 0 0-59.709 26.713-59.709 117.825 0 108.451-6.188 243.148 98.984 270.988 37.961 10.027 70.582 12.185 96.827 10.685 47.617-2.624 74.331-16.967 74.331-16.967l-1.593-34.589s-34.026 10.688-72.269 9.468c-37.87-1.313-77.801-4.124-83.988-50.616-.563-4.124-.843-8.436-.843-13.029 80.237 19.589 148.661 8.531 167.504 6.28 52.586-6.28 98.422-38.713 104.233-68.333 9.189-46.68 8.438-113.887 8.438-113.887h0zM381.443 300h-43.68V194.207c0-46.586-59.992-48.367-59.992 6.468v58.584h-43.397v-58.584c0-54.835-59.991-53.054-59.991-6.468V300H130.61c0-114.449-4.874-137.382 17.247-162.784 24.277-27.09 74.801-28.87 97.297 5.718l10.873 18.278 10.873-18.278c22.591-34.777 73.207-32.62 97.296-5.718 22.216 25.59 17.247 48.428 17.247 162.784h0z"/>
  </symbol>
  <symbol id="bluesky" viewBox="0 -3.268 64 68.414">
    <path fill="currentColor" d="M13.873 3.805C21.21 9.332 29.103 20.537 32 26.55v15.882c0-.338-.13.044-.41.867-1.512 4.456-7.418 21.847-20.923 7.944-7.111-7.32-3.819-14.64 9.125-16.85-7.405 1.264-15.73-.825-18.014-9.015C1.12 23.022 0 8.51 0 6.55 0-3.268 8.579-.182 13.873 3.805zm36.254 0C42.79 9.332 34.897 20.537 32 26.55v15.882c0-.338.13.044.41.867 1.512 4.456 7.418 21.847 20.923 7.944 7.111-7.32 3.819-14.64-9.125-16.85 7.405 1.264 15.73-.825 18.014-9.015C62.88 23.022 64 8.51 64 6.55c0-9.818-8.578-6.732-13.873-2.745z"/>
  </symbol>
</svg>
